# xmcd
#
# Track frame offsets:
#	150
#	11647
#	26097
#	45292
#	58242
#	73627
#	92255
#	107217
#	124820
#	136160
#	162965
#	171312
#	189905
#	206030
#	223515
#
# Disc length: 3113 seconds
#
# Revision: 1
# Processed by: cddbd v1.4PL0 Copyright (c) Steve Scherf et al.
# Submitted via: audiograbber 1.80.04
#
DISCID=cf0c270f
DTITLE=Tony McPhee and Friends - Me And The Devil
DYEAR=1900
DGENRE=
TTITLE0=Rollin' And Tumblin'
TTITLE1=Duckin' And Dodgin'
TTITLE2=Death Letter
TTITLE3=Elevator Woman
TTITLE4=Make Me A Pallat
TTITLE5=Heartstruck Sorrow
TTITLE6=When You Got A Good Friend
TTITLE7=Me And The Devil
TTITLE8=You Better Mind
TTITLE9=Hard Time Killing Floor
TTITLE10=Same Thing On My Mind
TTITLE11=Broke Down Engine
TTITLE12=Arkansas Woman
TTITLE13=No More Doggin'
TTITLE14=Buy You A Diamond Ring
EXTD=
EXTT0=
EXTT1=
EXTT2=
EXTT3=
EXTT4=
EXTT5=
EXTT6=
EXTT7=
EXTT8=
EXTT9=
EXTT10=
EXTT11=
EXTT12=
EXTT13=
EXTT14=
PLAYORDER=
